<svg width="62" height="62" fill="none" xmlns="http://www.w3.org/2000/svg"><g fill="#F8FDFE"><path d="M38.55 51.88a1.5 1.5 0 0 1-.997-.736l-3.544-6.357a23.602 23.602 0 0 1-5.933-.505c-5.196-1.109-9.74-3.848-12.787-7.704-3.11-3.936-4.296-8.57-3.341-13.044.955-4.473 3.934-8.216 8.376-10.542 4.356-2.275 9.621-2.917 14.817-1.808 5.196 1.11 9.74 3.845 12.784 7.7 3.11 3.936 4.296 8.571 3.341 13.043-1.02 4.775-4.378 8.739-9.266 10.98l-1.67 7.824a1.5 1.5 0 0 1-1.78 1.153v-.004Zm-3.38-10.116a1.5 1.5 0 0 1 .998.736l2.062 3.697.997-4.67a1.5 1.5 0 0 1 .9-1.075c4.358-1.789 7.35-5.124 8.209-9.15 1.602-7.506-4.596-15.215-13.817-17.183-9.221-1.969-18.027 2.537-19.63 10.043-1.602 7.506 4.592 15.218 13.813 17.186 1.979.427 4.01.56 6.027.391a1.49 1.49 0 0 1 .442.025Z"/><path d="M25.502 30.644c-.048-.01-.098-.02-.142-.037-.045-.017-.095-.034-.138-.052a1.233 1.233 0 0 1-.132-.065 1.594 1.594 0 0 1-.447-.377 1.503 1.503 0 0 1 1.766-2.315 1.354 1.354 0 0 1 .257.143 1.634 1.634 0 0 1 .225.189 1.428 1.428 0 0 1 .258.359 1.378 1.378 0 0 1 .108.273 1.763 1.763 0 0 1 .054.288c.005.048.004.103.005.147a1.447 1.447 0 0 1-.122.573 1.416 1.416 0 0 1-.232.373 1.462 1.462 0 0 1-.875.509 1.363 1.363 0 0 1-.44.017 1.4 1.4 0 0 1-.145-.025Zm10.856 2.318a1.418 1.418 0 0 1-.411-.155 1.612 1.612 0 0 1-.446-.377 1.469 1.469 0 0 1-.322-.81 1.541 1.541 0 0 1 .065-.583 1.435 1.435 0 0 1 .117-.269c.023-.042.05-.084.076-.125.027-.04.058-.078.09-.116a1.443 1.443 0 0 1 .458-.367 1.558 1.558 0 0 1 .709-.167 1.614 1.614 0 0 1 .578.123 1.353 1.353 0 0 1 .256.144 1.59 1.59 0 0 1 .322.298 1.489 1.489 0 0 1 .303.665c.01.048.016.097.02.146a1.371 1.371 0 0 1-.027.44 1.432 1.432 0 0 1-.233.537 1.584 1.584 0 0 1-.189.224 1.647 1.647 0 0 1-.23.184 1.313 1.313 0 0 1-.4.182 1.619 1.619 0 0 1-.29.055 1.336 1.336 0 0 1-.294-.004 1.473 1.473 0 0 1-.151-.025Zm-5.428-1.159a1.51 1.51 0 0 1-1.128-1.053 1.423 1.423 0 0 1-.053-.287c-.004-.049-.005-.103-.006-.148a1.461 1.461 0 0 1 .123-.577 1.416 1.416 0 0 1 .143-.256 1.724 1.724 0 0 1 .188-.225c.034-.035.073-.066.11-.097a1.511 1.511 0 0 1 1.662-.14 1.329 1.329 0 0 1 .242.167 1.55 1.55 0 0 1 .292.33 1.483 1.483 0 0 1 .233.983 1.369 1.369 0 0 1-.115.43 1.748 1.748 0 0 1-.142.257 1.445 1.445 0 0 1-.548.483 1.561 1.561 0 0 1-.562.162c-.049.005-.103.005-.146.006a1.318 1.318 0 0 1-.292-.035Z"/></g></svg>