<svg width="52" height="52" fill="none" xmlns="http://www.w3.org/2000/svg"><g fill="#F8FDFE"><path d="M37.743 44.844a1.5 1.5 0 0 1-1.129-.512l-4.793-5.477a23.6 23.6 0 0 1-5.908.745c-5.313 0-10.328-1.73-14.113-4.865-3.863-3.2-5.991-7.485-5.991-12.059 0-4.574 2.132-8.856 5.991-12.058 3.785-3.135 8.8-4.862 14.113-4.862 5.313 0 10.328 1.727 14.11 4.862 3.863 3.2 5.99 7.485 5.99 12.058 0 4.882-2.457 9.46-6.77 12.672v8a1.5 1.5 0 0 1-1.5 1.5v-.004Zm-5.417-9.188a1.5 1.5 0 0 1 1.129.512l2.788 3.185v-4.776a1.5 1.5 0 0 1 .657-1.239c3.888-2.659 6.117-6.545 6.117-10.662 0-7.675-7.671-13.92-17.1-13.92-9.429 0-17.1 6.245-17.1 13.92S16.484 36.6 25.913 36.6c2.024.005 4.038-.29 5.976-.876a1.49 1.49 0 0 1 .437-.068Z"/><path d="M20.549 26.8c-.049 0-.1 0-.147-.007-.047-.007-.1-.013-.146-.022a1.228 1.228 0 0 1-.142-.036c-.042-.014-.094-.031-.139-.05a1.596 1.596 0 0 1-.377-.225 1.48 1.48 0 0 1-.372-.455 1.5 1.5 0 0 1-.178-.706 1.521 1.521 0 0 1 .44-1.061 1.376 1.376 0 0 1 .355-.262 1.346 1.346 0 0 1 .413-.149 1.565 1.565 0 0 1 .441-.022 1.628 1.628 0 0 1 .288.058 1.438 1.438 0 0 1 .271.113 1.345 1.345 0 0 1 .244.162 1.48 1.48 0 0 1 .372.455 1.752 1.752 0 0 1 .113.27c.015.046.026.1.036.143a1.449 1.449 0 0 1 0 .586 1.422 1.422 0 0 1-.149.413 1.459 1.459 0 0 1-.616.617 1.615 1.615 0 0 1-.271.113 1.36 1.36 0 0 1-.288.058 1.386 1.386 0 0 1-.148.007Zm11.101 0a1.472 1.472 0 0 1-.706-.178 1.57 1.57 0 0 1-.353-.262 1.465 1.465 0 0 1-.375-.625 1.55 1.55 0 0 1-.058-.584 1.445 1.445 0 0 1 .058-.288 1.328 1.328 0 0 1 .112-.27 1.444 1.444 0 0 1 .372-.455 1.553 1.553 0 0 1 .804-.333 1.6 1.6 0 0 1 .445.022 1.36 1.36 0 0 1 .281.086 1.615 1.615 0 0 1 .377.225 1.48 1.48 0 0 1 .373.455 1.587 1.587 0 0 1 .112.27c.014.047.026.1.036.143a1.368 1.368 0 0 1 .029.293 1.445 1.445 0 0 1-.115.574 1.587 1.587 0 0 1-.138.259 1.627 1.627 0 0 1-.187.228 1.29 1.29 0 0 1-.354.262 1.615 1.615 0 0 1-.271.113 1.36 1.36 0 0 1-.288.058 1.495 1.495 0 0 1-.154.007Zm-5.55 0a1.51 1.51 0 0 1-1.324-.794 1.438 1.438 0 0 1-.112-.27c-.014-.047-.026-.1-.036-.143a1.445 1.445 0 0 1 0-.59 1.422 1.422 0 0 1 .148-.413 1.246 1.246 0 0 1 .163-.245 1.511 1.511 0 0 1 1.596-.484 1.335 1.335 0 0 1 .271.113 1.56 1.56 0 0 1 .354.262 1.51 1.51 0 0 1 .411.768 1.474 1.474 0 0 1-.036.733 1.328 1.328 0 0 1-.112.27 1.47 1.47 0 0 1-.75.68 1.617 1.617 0 0 1-.138.05c-.047.015-.1.026-.142.036a1.312 1.312 0 0 1-.293.027Z"/></g></svg>